<mxfile host="app.diagrams.net" modified="2021-04-25T17:46:37.699Z" agent="5.0 (Windows NT 10.0; Win64; x64) AppleWebKit/537.36 (KHTML, like Gecko) Chrome/90.0.4430.85 Safari/537.36" etag="XuAq3J9-HELLUhqtnz6b" version="14.6.6" type="github">
  <diagram id="evBnWI_UKCn8-NK_h4An" name="Page-1">
    <mxGraphModel dx="1705" dy="740" grid="1" gridSize="10" guides="1" tooltips="1" connect="1" arrows="1" fold="1" page="1" pageScale="1" pageWidth="827" pageHeight="1169" math="0" shadow="0">
      <root>
        <mxCell id="0" />
        <mxCell id="1" parent="0" />
        <mxCell id="SZ8ogn6BAcxsXtpNJqSN-34" value="opt" style="shape=umlFrame;whiteSpace=wrap;html=1;" parent="1" vertex="1">
          <mxGeometry x="170" y="270" width="460" height="70" as="geometry" />
        </mxCell>
        <mxCell id="SZ8ogn6BAcxsXtpNJqSN-35" value="opt" style="shape=umlFrame;whiteSpace=wrap;html=1;" parent="1" vertex="1">
          <mxGeometry x="170" y="350" width="460" height="70" as="geometry" />
        </mxCell>
        <mxCell id="SZ8ogn6BAcxsXtpNJqSN-4" value=":ItemListener" style="shape=umlLifeline;perimeter=lifelinePerimeter;whiteSpace=wrap;html=1;container=1;collapsible=0;recursiveResize=0;outlineConnect=0;" parent="1" vertex="1">
          <mxGeometry x="270" y="120" width="100" height="560" as="geometry" />
        </mxCell>
        <mxCell id="SZ8ogn6BAcxsXtpNJqSN-9" value="" style="html=1;points=[];perimeter=orthogonalPerimeter;" parent="SZ8ogn6BAcxsXtpNJqSN-4" vertex="1">
          <mxGeometry x="45" y="80" width="10" height="460" as="geometry" />
        </mxCell>
        <mxCell id="SZ8ogn6BAcxsXtpNJqSN-8" value="" style="shape=umlLifeline;participant=umlActor;perimeter=lifelinePerimeter;whiteSpace=wrap;html=1;container=1;collapsible=0;recursiveResize=0;verticalAlign=top;spacingTop=36;outlineConnect=0;" parent="1" vertex="1">
          <mxGeometry x="60" y="120" width="20" height="560" as="geometry" />
        </mxCell>
        <mxCell id="SZ8ogn6BAcxsXtpNJqSN-10" value="itemStateChanged(ItemEvent SELECTED)" style="html=1;verticalAlign=bottom;endArrow=block;entryX=0;entryY=0;" parent="1" source="SZ8ogn6BAcxsXtpNJqSN-8" target="SZ8ogn6BAcxsXtpNJqSN-9" edge="1">
          <mxGeometry x="-0.021" relative="1" as="geometry">
            <mxPoint x="135" y="170" as="sourcePoint" />
            <mxPoint as="offset" />
          </mxGeometry>
        </mxCell>
        <mxCell id="SZ8ogn6BAcxsXtpNJqSN-11" value="" style="html=1;verticalAlign=bottom;endArrow=open;dashed=1;endSize=8;exitX=0;exitY=0.95;" parent="1" source="SZ8ogn6BAcxsXtpNJqSN-9" target="SZ8ogn6BAcxsXtpNJqSN-8" edge="1">
          <mxGeometry x="0.1021" y="-58" relative="1" as="geometry">
            <mxPoint x="135" y="246" as="targetPoint" />
            <mxPoint as="offset" />
          </mxGeometry>
        </mxCell>
        <mxCell id="SZ8ogn6BAcxsXtpNJqSN-16" value="cboxLerak: JComboBox" style="shape=umlLifeline;perimeter=lifelinePerimeter;whiteSpace=wrap;html=1;container=1;collapsible=0;recursiveResize=0;outlineConnect=0;" parent="1" vertex="1">
          <mxGeometry x="414" y="120" width="100" height="560" as="geometry" />
        </mxCell>
        <mxCell id="SZ8ogn6BAcxsXtpNJqSN-17" value="" style="html=1;points=[];perimeter=orthogonalPerimeter;" parent="SZ8ogn6BAcxsXtpNJqSN-16" vertex="1">
          <mxGeometry x="45" y="100" width="10" height="40" as="geometry" />
        </mxCell>
        <mxCell id="SZ8ogn6BAcxsXtpNJqSN-18" value="getSelectedItem()" style="html=1;verticalAlign=bottom;endArrow=block;entryX=0;entryY=0;" parent="1" source="SZ8ogn6BAcxsXtpNJqSN-9" target="SZ8ogn6BAcxsXtpNJqSN-17" edge="1">
          <mxGeometry relative="1" as="geometry">
            <mxPoint x="389" y="220" as="sourcePoint" />
          </mxGeometry>
        </mxCell>
        <mxCell id="SZ8ogn6BAcxsXtpNJqSN-19" value="a: Object" style="html=1;verticalAlign=bottom;endArrow=open;dashed=1;endSize=8;exitX=0;exitY=0.95;" parent="1" source="SZ8ogn6BAcxsXtpNJqSN-17" target="SZ8ogn6BAcxsXtpNJqSN-4" edge="1">
          <mxGeometry x="-0.0065" relative="1" as="geometry">
            <mxPoint x="389" y="296" as="targetPoint" />
            <mxPoint as="offset" />
          </mxGeometry>
        </mxCell>
        <mxCell id="SZ8ogn6BAcxsXtpNJqSN-20" value="curr: Telepes" style="shape=umlLifeline;perimeter=lifelinePerimeter;whiteSpace=wrap;html=1;container=1;collapsible=0;recursiveResize=0;outlineConnect=0;" parent="1" vertex="1">
          <mxGeometry x="560" y="120" width="100" height="570" as="geometry" />
        </mxCell>
        <mxCell id="SZ8ogn6BAcxsXtpNJqSN-21" value="" style="html=1;points=[];perimeter=orthogonalPerimeter;" parent="SZ8ogn6BAcxsXtpNJqSN-20" vertex="1">
          <mxGeometry x="45" y="170" width="10" height="40" as="geometry" />
        </mxCell>
        <mxCell id="SZ8ogn6BAcxsXtpNJqSN-26" value="" style="html=1;points=[];perimeter=orthogonalPerimeter;" parent="SZ8ogn6BAcxsXtpNJqSN-20" vertex="1">
          <mxGeometry x="45" y="250" width="10" height="40" as="geometry" />
        </mxCell>
        <mxCell id="SZ8ogn6BAcxsXtpNJqSN-22" value="AnyagVisszatesz(a: Nyersanyag)" style="html=1;verticalAlign=bottom;endArrow=block;entryX=0;entryY=0;" parent="1" source="SZ8ogn6BAcxsXtpNJqSN-4" target="SZ8ogn6BAcxsXtpNJqSN-21" edge="1">
          <mxGeometry x="-0.0183" relative="1" as="geometry">
            <mxPoint x="535" y="275" as="sourcePoint" />
            <mxPoint as="offset" />
          </mxGeometry>
        </mxCell>
        <mxCell id="SZ8ogn6BAcxsXtpNJqSN-23" value="" style="html=1;verticalAlign=bottom;endArrow=open;dashed=1;endSize=8;exitX=0;exitY=0.95;" parent="1" source="SZ8ogn6BAcxsXtpNJqSN-21" target="SZ8ogn6BAcxsXtpNJqSN-9" edge="1">
          <mxGeometry relative="1" as="geometry">
            <mxPoint x="535" y="351" as="targetPoint" />
          </mxGeometry>
        </mxCell>
        <mxCell id="SZ8ogn6BAcxsXtpNJqSN-30" value=":Palya" style="shape=umlLifeline;perimeter=lifelinePerimeter;whiteSpace=wrap;html=1;container=1;collapsible=0;recursiveResize=0;outlineConnect=0;" parent="1" vertex="1">
          <mxGeometry x="700" y="120" width="100" height="580" as="geometry" />
        </mxCell>
        <mxCell id="SZ8ogn6BAcxsXtpNJqSN-31" value="" style="html=1;points=[];perimeter=orthogonalPerimeter;" parent="SZ8ogn6BAcxsXtpNJqSN-30" vertex="1">
          <mxGeometry x="45" y="330" width="10" height="50" as="geometry" />
        </mxCell>
        <mxCell id="SZ8ogn6BAcxsXtpNJqSN-32" value="nextTelepes()" style="html=1;verticalAlign=bottom;endArrow=block;entryX=0;entryY=0;" parent="1" source="SZ8ogn6BAcxsXtpNJqSN-9" target="SZ8ogn6BAcxsXtpNJqSN-31" edge="1">
          <mxGeometry relative="1" as="geometry">
            <mxPoint x="675" y="420" as="sourcePoint" />
          </mxGeometry>
        </mxCell>
        <mxCell id="SZ8ogn6BAcxsXtpNJqSN-33" value="t: Telepes" style="html=1;verticalAlign=bottom;endArrow=open;dashed=1;endSize=8;exitX=0;exitY=0.95;" parent="1" source="SZ8ogn6BAcxsXtpNJqSN-31" target="SZ8ogn6BAcxsXtpNJqSN-4" edge="1">
          <mxGeometry relative="1" as="geometry">
            <mxPoint x="675" y="496" as="targetPoint" />
          </mxGeometry>
        </mxCell>
        <mxCell id="SZ8ogn6BAcxsXtpNJqSN-27" value="KapuLerak(a: Teleportkapu)" style="html=1;verticalAlign=bottom;endArrow=block;entryX=0;entryY=0;" parent="1" source="SZ8ogn6BAcxsXtpNJqSN-9" target="SZ8ogn6BAcxsXtpNJqSN-26" edge="1">
          <mxGeometry x="-0.0183" relative="1" as="geometry">
            <mxPoint x="319.32352941176464" y="360" as="sourcePoint" />
            <mxPoint as="offset" />
          </mxGeometry>
        </mxCell>
        <mxCell id="SZ8ogn6BAcxsXtpNJqSN-28" value="" style="html=1;verticalAlign=bottom;endArrow=open;dashed=1;endSize=8;exitX=0;exitY=0.95;entryX=1.311;entryY=0.45;entryDx=0;entryDy=0;entryPerimeter=0;" parent="1" source="SZ8ogn6BAcxsXtpNJqSN-26" target="SZ8ogn6BAcxsXtpNJqSN-9" edge="1">
          <mxGeometry relative="1" as="geometry">
            <mxPoint x="325" y="397.9999999999999" as="targetPoint" />
          </mxGeometry>
        </mxCell>
        <mxCell id="SZ8ogn6BAcxsXtpNJqSN-36" value="[a felhasznalo nyersanyagot valasztott]" style="text;html=1;strokeColor=none;fillColor=none;align=center;verticalAlign=middle;whiteSpace=wrap;rounded=0;" parent="1" vertex="1">
          <mxGeometry x="170" y="310" width="140" height="20" as="geometry" />
        </mxCell>
        <mxCell id="SZ8ogn6BAcxsXtpNJqSN-37" value="[a felhasznalo teleportkaput valasztott]" style="text;html=1;strokeColor=none;fillColor=none;align=center;verticalAlign=middle;whiteSpace=wrap;rounded=0;" parent="1" vertex="1">
          <mxGeometry x="170" y="390" width="145" height="20" as="geometry" />
        </mxCell>
        <mxCell id="SZ8ogn6BAcxsXtpNJqSN-38" value="form: MainGui" style="shape=umlLifeline;perimeter=lifelinePerimeter;whiteSpace=wrap;html=1;container=1;collapsible=0;recursiveResize=0;outlineConnect=0;" parent="1" vertex="1">
          <mxGeometry x="820" y="120" width="100" height="570" as="geometry" />
        </mxCell>
        <mxCell id="SZ8ogn6BAcxsXtpNJqSN-39" value="" style="html=1;points=[];perimeter=orthogonalPerimeter;" parent="SZ8ogn6BAcxsXtpNJqSN-38" vertex="1">
          <mxGeometry x="45" y="430" width="10" height="50" as="geometry" />
        </mxCell>
        <mxCell id="SZ8ogn6BAcxsXtpNJqSN-40" value="changeTelepes(t)" style="html=1;verticalAlign=bottom;endArrow=block;entryX=0;entryY=0;" parent="1" source="SZ8ogn6BAcxsXtpNJqSN-9" target="SZ8ogn6BAcxsXtpNJqSN-39" edge="1">
          <mxGeometry relative="1" as="geometry">
            <mxPoint x="795" y="550" as="sourcePoint" />
          </mxGeometry>
        </mxCell>
        <mxCell id="SZ8ogn6BAcxsXtpNJqSN-41" value="" style="html=1;verticalAlign=bottom;endArrow=open;dashed=1;endSize=8;exitX=0;exitY=0.95;" parent="1" source="SZ8ogn6BAcxsXtpNJqSN-39" target="SZ8ogn6BAcxsXtpNJqSN-4" edge="1">
          <mxGeometry relative="1" as="geometry">
            <mxPoint x="795" y="626" as="targetPoint" />
          </mxGeometry>
        </mxCell>
      </root>
    </mxGraphModel>
  </diagram>
</mxfile>
